<svg width="37" height="24" viewBox="0 0 37 24" fill="none" xmlns="http://www.w3.org/2000/svg">
<g clip-path="url(#clip0_94_50)">
<path d="M0.5 0H36.5V24H0.5V0Z" fill="white"/>
<path d="M0.5 0H36.5V7.2H0.5V0Z" fill="black"/>
<path d="M0.5 16.8H36.5V24H0.5V16.8Z" fill="#006600"/>
<path d="M14.2132 19.125L14.473 19.275L21.4799 7.13863C21.8897 7.02882 22.1147 6.63911 22.3397 6.2494C22.4897 5.98959 23.0897 4.95036 23.3497 3.6C22.3103 4.50036 21.7103 5.53959 21.5603 5.7994C21.3353 6.18911 21.1103 6.57882 21.2201 6.98863L14.2132 19.125Z" fill="black" stroke="black" stroke-width="0.15"/>
<path d="M14.2132 19.125L14.473 19.275L21.4799 7.13863C21.8897 7.02882 22.1147 6.63911 22.3397 6.2494C22.4897 5.98959 23.0897 4.95036 23.3497 3.6C22.3103 4.50036 21.7103 5.53959 21.5603 5.7994C21.3353 6.18911 21.1103 6.57882 21.2201 6.98863L14.2132 19.125Z" fill="white"/>
<path d="M22.7868 19.125L22.527 19.275L15.5201 7.13863C15.1103 7.02882 14.8853 6.63911 14.6603 6.2494C14.5103 5.98959 13.9103 4.95036 13.6503 3.6C14.6897 4.50036 15.2897 5.53959 15.4397 5.7994C15.6647 6.18911 15.8897 6.57882 15.7799 6.98863L22.7868 19.125Z" fill="black" stroke="black" stroke-width="0.15"/>
<path d="M22.7868 19.125L22.527 19.275L15.5201 7.13863C15.1103 7.02882 14.8853 6.63911 14.6603 6.2494C14.5103 5.98959 13.9103 4.95036 13.6503 3.6C14.6897 4.50036 15.2897 5.53959 15.4397 5.7994C15.6647 6.18911 15.8897 6.57882 15.7799 6.98863L22.7868 19.125Z" fill="white"/>
<path d="M0.5 8.39993V15.5999H15.65C16.1 16.7999 17.6 19.1999 18.5 19.1999C19.4 19.1999 20.9 16.7999 21.35 15.5999H36.5V8.39993H21.35C20.9 7.19993 19.4 4.79993 18.5 4.79993C17.6 4.79993 16.1 7.19993 15.65 8.39993H0.5Z" fill="#BB0000"/>
<path d="M21.35 15.6C21.8 14.4 22.1 13.2 22.1 12C22.1 10.8 21.8 9.60002 21.35 8.40002C20.9 9.60002 20.6 10.8 20.6 12C20.6 13.2 20.9 14.4 21.35 15.6Z" fill="black"/>
<path d="M15.65 15.6C15.2 14.4 14.9 13.2 14.9 12C14.9 10.8 15.2 9.60002 15.65 8.40002C16.1 9.60002 16.4 10.8 16.4 12C16.4 13.2 16.1 14.4 15.65 15.6Z" fill="black"/>
<path d="M18.5 12.9C18.8313 12.9 19.1 12.497 19.1 12C19.1 11.5029 18.8313 11.1 18.5 11.1C18.1686 11.1 17.9 11.5029 17.9 12C17.9 12.497 18.1686 12.9 18.5 12.9Z" fill="white"/>
<path d="M18.65 12.8774C18.65 12.8774 19.25 14.0774 19.25 16.0274C19.25 17.9774 18.65 19.1774 18.65 19.1774V12.8774Z" fill="white"/>
<path d="M18.35 11.1224C18.35 11.1224 17.75 9.92244 17.75 7.97244C17.75 6.02244 18.35 4.82244 18.35 4.82244V11.1224Z" fill="white"/>
<path d="M18.35 12.8774C18.35 12.8774 17.75 14.0774 17.75 16.0274C17.75 17.9774 18.35 19.1774 18.35 19.1774V12.8774Z" fill="white"/>
<path d="M18.65 11.1224C18.65 11.1224 19.25 9.92244 19.25 7.97244C19.25 6.02244 18.65 4.82244 18.65 4.82244V11.1224Z" fill="white"/>
</g>
<defs>
<clipPath id="clip0_94_50">
<rect x="0.5" width="36" height="24" rx="4.72131" fill="white"/>
</clipPath>
</defs>
</svg>
