<svg width="25" height="24" viewBox="0 0 25 24" fill="none" xmlns="http://www.w3.org/2000/svg">
<path d="M19.1313 23.9873L5.81203 24C2.88179 24.0027 0.482324 21.6066 0.478995 18.6748L0.466341 5.34851C0.463677 2.41673 2.85848 0.0159938 5.78872 0.0126622L19.108 2.22137e-06C22.0382 -0.00266304 24.4377 2.39341 24.441 5.32519L24.4537 18.6515C24.457 21.5839 22.0615 23.9847 19.1313 23.9873Z" fill="url(#paint0_radial_94_207)"/>
<path d="M19.1313 23.9873L5.81203 24C2.88179 24.0027 0.482324 21.6066 0.478995 18.6748L0.466341 5.34851C0.463677 2.41673 2.85848 0.0159938 5.78872 0.0126622L19.108 2.22137e-06C22.0382 -0.00266304 24.4377 2.39341 24.441 5.32519L24.4537 18.6515C24.457 21.5839 22.0615 23.9847 19.1313 23.9873Z" fill="url(#paint1_radial_94_207)"/>
<path d="M12.4604 16.6645C9.89041 16.6645 7.79861 14.5723 7.79861 12.0003C7.79861 9.42836 9.89041 7.33614 12.4604 7.33614C15.0303 7.33614 17.1221 9.42836 17.1221 12.0003C17.1221 14.5723 15.0303 16.6645 12.4604 16.6645ZM12.4604 8.66877C10.6243 8.66877 9.13054 10.1633 9.13054 12.0003C9.13054 13.8374 10.6243 15.3319 12.4604 15.3319C14.2964 15.3319 15.7902 13.8374 15.7902 12.0003C15.7902 10.1633 14.2964 8.66877 12.4604 8.66877Z" fill="white"/>
<path d="M17.4551 8.00245C18.0068 8.00245 18.454 7.55498 18.454 7.00298C18.454 6.45099 18.0068 6.00351 17.4551 6.00351C16.9034 6.00351 16.4561 6.45099 16.4561 7.00298C16.4561 7.55498 16.9034 8.00245 17.4551 8.00245Z" fill="white"/>
<path d="M16.4561 20.6624H8.46457C5.89462 20.6624 3.80283 18.5702 3.80283 15.9982V8.00245C3.80283 5.43047 5.89462 3.33824 8.46457 3.33824H16.4561C19.0261 3.33824 21.1179 5.43047 21.1179 8.00245V15.9982C21.1179 18.5702 19.0261 20.6624 16.4561 20.6624ZM8.46457 4.67087C6.62851 4.67087 5.13475 6.16542 5.13475 8.00245V15.9982C5.13475 17.8353 6.62851 19.3298 8.46457 19.3298H16.4561C18.2922 19.3298 19.7859 17.8353 19.7859 15.9982V8.00245C19.7859 6.16542 18.2922 4.67087 16.4561 4.67087H8.46457Z" fill="white"/>
<defs>
<radialGradient id="paint0_radial_94_207" cx="0" cy="0" r="1" gradientUnits="userSpaceOnUse" gradientTransform="translate(9.38359 24.0173) scale(29.9011 29.9169)">
<stop stop-color="#FFDD55"/>
<stop offset="0.328" stop-color="#FF543F"/>
<stop offset="0.348" stop-color="#FC5245"/>
<stop offset="0.504" stop-color="#E64771"/>
<stop offset="0.643" stop-color="#D53E91"/>
<stop offset="0.761" stop-color="#CC39A4"/>
<stop offset="0.841" stop-color="#C837AB"/>
</radialGradient>
<radialGradient id="paint1_radial_94_207" cx="0" cy="0" r="1" gradientUnits="userSpaceOnUse" gradientTransform="translate(4.32626 -0.299638) scale(19.8544 13.2359)">
<stop stop-color="#4168C9"/>
<stop offset="0.999" stop-color="#4168C9" stop-opacity="0"/>
</radialGradient>
</defs>
</svg>
