<svg width="25" height="24" viewBox="0 0 25 24" fill="none" xmlns="http://www.w3.org/2000/svg">
<path d="M24.5337 20.6667C24.5337 22.508 23.0417 24 21.2004 24H3.86702C2.02636 24 0.533691 22.508 0.533691 20.6667V3.33333C0.533691 1.492 2.02636 0 3.86702 0H21.2004C23.0417 0 24.5337 1.492 24.5337 3.33333V20.6667Z" fill="#0288D1"/>
<path d="M4.53369 8.66667H7.86702V20H4.53369V8.66667ZM6.19036 7.33333H6.17169C5.17702 7.33333 4.53369 6.592 4.53369 5.666C4.53369 4.72 5.19702 4 6.20969 4C7.22369 4 7.84836 4.72 7.86702 5.666C7.86702 6.59133 7.22369 7.33333 6.19036 7.33333ZM20.5337 20H17.2004V13.934C17.2004 12.4687 16.3837 11.4687 15.0724 11.4687C14.0717 11.4687 13.5304 12.1433 13.2677 12.7953C13.1717 13.0287 13.2004 13.674 13.2004 14V20H9.86702V8.66667H13.2004V10.4107C13.681 9.66667 14.4337 8.66667 16.359 8.66667C18.7444 8.66667 20.533 10.1667 20.533 13.516L20.5337 20Z" fill="white"/>
</svg>
