<svg width="23" height="15" viewBox="0 0 23 15" fill="none" xmlns="http://www.w3.org/2000/svg">
<path d="M1.25 15C0.559644 15 0 14.4404 0 13.75C0 13.0596 0.559644 12.5 1.25 12.5H21.75C22.4404 12.5 23 13.0596 23 13.75C23 14.4404 22.4404 15 21.75 15H1.25ZM1.25 8.75C0.559644 8.75 0 8.19036 0 7.5C0 6.80964 0.559644 6.25 1.25 6.25H21.75C22.4404 6.25 23 6.80964 23 7.5C23 8.19036 22.4404 8.75 21.75 8.75H1.25ZM1.25 2.5C0.559644 2.5 0 1.94036 0 1.25C0 0.559644 0.559644 0 1.25 0H21.75C22.4404 0 23 0.559644 23 1.25C23 1.94036 22.4404 2.5 21.75 2.5H1.25Z" fill="black"/>
</svg>
