<svg width="61" height="16" viewBox="0 0 61 16" fill="none" xmlns="http://www.w3.org/2000/svg">
<path d="M19.5181 3.1994C19.3939 3.1994 19.2884 3.28957 19.269 3.41235L17.8313 12.5299C17.8261 12.5632 17.8281 12.5973 17.8373 12.6297C17.8465 12.6621 17.8626 12.6922 17.8845 12.7178C17.9064 12.7435 17.9336 12.764 17.9643 12.7781C17.9949 12.7922 18.0282 12.7995 18.0619 12.7995H19.7669C19.8909 12.7995 19.9966 12.7092 20.016 12.5866L20.4384 9.90915C20.4576 9.78655 20.5633 9.6962 20.6875 9.6962H22.2376C24.0489 9.6962 25.5864 8.37467 25.8672 6.58395C26.1504 4.77807 24.7396 3.20332 22.74 3.1994H19.5181ZM21.1756 5.2348H22.4158C23.4369 5.2348 23.7695 5.83729 23.6643 6.50358C23.5592 7.17129 23.0428 7.66312 22.055 7.66312H20.7926L21.1756 5.2348ZM29.335 5.85457C28.9044 5.85618 28.4091 5.94439 27.8529 6.17605C26.5772 6.70779 25.9645 7.80675 25.7043 8.60793C25.7043 8.60793 24.8763 11.0523 26.7472 12.3952C26.7472 12.3952 28.4823 13.688 30.4355 12.3156L30.4019 12.5299C30.3966 12.5632 30.3987 12.5972 30.4079 12.6296C30.417 12.662 30.4331 12.6921 30.455 12.7177C30.4768 12.7433 30.504 12.7639 30.5346 12.778C30.5651 12.7921 30.5984 12.7995 30.6321 12.7995H32.2507C32.3749 12.7995 32.4804 12.7092 32.4998 12.5866L33.4844 6.34284C33.4896 6.30954 33.4876 6.27549 33.4785 6.24303C33.4694 6.21058 33.4533 6.18049 33.4314 6.15483C33.4095 6.12918 33.3824 6.10857 33.3518 6.09442C33.3211 6.08027 33.2878 6.07292 33.2541 6.07287H31.6355C31.5113 6.07287 31.4057 6.16322 31.3864 6.28582L31.3335 6.6219C31.3335 6.6219 30.6267 5.84976 29.335 5.85457ZM29.3879 7.82671C29.5738 7.82671 29.7438 7.85237 29.8963 7.90137C30.5947 8.12555 30.9906 8.79647 30.876 9.5237C30.7347 10.4192 30.0004 11.0785 29.0586 11.0785C28.8729 11.0785 28.7029 11.053 28.5502 11.004C27.852 10.7798 27.4536 10.1089 27.5681 9.38168C27.7094 8.48623 28.4461 7.82671 29.3879 7.82671Z" fill="#003087"/>
<path d="M42.8267 3.1994C42.7025 3.1994 42.597 3.28957 42.5776 3.41235L41.1399 12.5299C41.1347 12.5632 41.1367 12.5973 41.1459 12.6297C41.1551 12.6621 41.1712 12.6922 41.1931 12.7178C41.215 12.7435 41.2422 12.764 41.2729 12.7781C41.3035 12.7922 41.3368 12.7995 41.3705 12.7995H43.0755C43.1995 12.7995 43.3052 12.7092 43.3246 12.5866L43.747 9.90915C43.7662 9.78655 43.8719 9.6962 43.9961 9.6962H45.5462C47.3575 9.6962 48.8948 8.37467 49.1755 6.58395C49.4588 4.77807 48.0482 3.20332 46.0486 3.1994H42.8267ZM44.4842 5.2348H45.7244C46.7455 5.2348 47.0781 5.83729 46.9729 6.50358C46.8678 7.17129 46.3515 7.66312 45.3636 7.66312H44.1012L44.4842 5.2348ZM52.6434 5.85457C52.2129 5.85618 51.7175 5.94439 51.1613 6.17605C49.8856 6.70779 49.2729 7.80675 49.0128 8.60793C49.0128 8.60793 48.185 11.0523 50.0559 12.3952C50.0559 12.3952 51.7907 13.688 53.7441 12.3156L53.7105 12.5299C53.7052 12.5632 53.7073 12.5973 53.7165 12.6297C53.7257 12.6621 53.7418 12.6922 53.7637 12.7178C53.7856 12.7435 53.8128 12.764 53.8434 12.7781C53.874 12.7922 53.9073 12.7995 53.941 12.7995H55.5595C55.6837 12.7995 55.7892 12.7092 55.8086 12.5866L56.7935 6.34284C56.7988 6.30951 56.7968 6.27543 56.7876 6.24295C56.7784 6.21047 56.7623 6.18036 56.7404 6.1547C56.7185 6.12904 56.6913 6.10843 56.6606 6.09431C56.63 6.08018 56.5966 6.07287 56.5629 6.07287H54.9443C54.8201 6.07287 54.7144 6.16322 54.6952 6.28582L54.6423 6.6219C54.6423 6.6219 53.9352 5.84976 52.6434 5.85457ZM52.6963 7.82671C52.8822 7.82671 53.0522 7.85237 53.2047 7.90137C53.9031 8.12555 54.2991 8.79647 54.1845 9.5237C54.0432 10.4192 53.3088 11.0785 52.367 11.0785C52.1813 11.0785 52.0113 11.053 51.8586 11.004C51.1604 10.7798 50.762 10.1089 50.8766 9.38168C51.0179 8.48623 51.7545 7.82671 52.6963 7.82671Z" fill="#0070E0"/>
<path d="M34.2524 6.07293C34.1241 6.07293 34.0328 6.19821 34.072 6.32027L35.8466 11.8268L34.242 14.4218C34.1642 14.5477 34.2547 14.7104 34.4028 14.7104H36.2992C36.3534 14.7104 36.4067 14.6964 36.454 14.6697C36.5012 14.643 36.5407 14.6047 36.5688 14.5583L41.5247 6.35983C41.6008 6.23385 41.5099 6.07275 41.3627 6.07275H39.4665C39.4117 6.0728 39.3579 6.0871 39.3104 6.11426C39.2628 6.14141 39.2232 6.18047 39.1953 6.22761L37.2445 9.52109L36.2543 6.25202C36.222 6.14564 36.1238 6.07275 36.0128 6.07275L34.2524 6.07293Z" fill="#003087"/>
<path d="M58.6322 3.1994C58.5082 3.1994 58.4025 3.28975 58.3831 3.41235L56.945 12.5296C56.9397 12.5629 56.9417 12.597 56.9509 12.6295C56.9601 12.6619 56.9762 12.6921 56.9981 12.7177C57.02 12.7434 57.0472 12.764 57.0779 12.7781C57.1085 12.7922 57.1419 12.7995 57.1756 12.7995H58.8806C59.0046 12.7995 59.1103 12.7092 59.1297 12.5866L60.5675 3.46902C60.5727 3.43574 60.5706 3.40173 60.5615 3.36932C60.5523 3.33691 60.5362 3.30686 60.5144 3.28125C60.4925 3.25564 60.4653 3.23506 60.4347 3.22093C60.4042 3.2068 60.3709 3.19946 60.3372 3.1994H58.6322Z" fill="#0070E0"/>
<path d="M5.30408 3.1994C5.19425 3.19949 5.08805 3.23875 5.00457 3.31012C4.92108 3.38148 4.86578 3.48029 4.8486 3.58877L4.0918 8.38875C4.12708 8.16458 4.32024 7.99938 4.54727 7.99938H6.76496C8.99691 7.99938 10.8908 6.37117 11.2369 4.16471C11.2626 3.99998 11.2772 3.8337 11.2805 3.667C10.7133 3.36958 10.047 3.1994 9.31696 3.1994H5.30408Z" fill="#001C64"/>
<path d="M11.2806 3.66718C11.2773 3.83387 11.2627 4.00016 11.2369 4.16489C10.8909 6.37135 8.99678 7.99956 6.76501 7.99956H4.54732C4.32047 7.99956 4.12713 8.16457 4.09184 8.38893L3.39597 12.7997L2.9601 15.5668C2.95159 15.6203 2.95478 15.6749 2.96945 15.727C2.98412 15.7791 3.00993 15.8274 3.04508 15.8686C3.08024 15.9098 3.1239 15.9428 3.17307 15.9655C3.22223 15.9881 3.27573 15.9999 3.32986 15.9998H5.73698C5.84681 15.9997 5.95301 15.9605 6.03649 15.8891C6.11998 15.8177 6.17528 15.7189 6.19245 15.6105L6.82648 11.589C6.84367 11.4805 6.89902 11.3816 6.98258 11.3103C7.06614 11.2389 7.17243 11.1997 7.28233 11.1997H8.69955C10.9315 11.1997 12.8254 9.57146 13.1715 7.36499C13.4172 5.79898 12.6285 4.37391 11.2806 3.66718Z" fill="#0070E0"/>
<path d="M2.56914 0.000183105C2.34229 0.000183105 2.14895 0.165196 2.11366 0.389193L0.224742 12.3671C0.188924 12.5944 0.364633 12.8001 0.594867 12.8001H3.39598L4.0915 8.38928L4.8483 3.5893C4.86548 3.48082 4.92079 3.38202 5.00427 3.31065C5.08776 3.23928 5.19395 3.20002 5.30379 3.19993H9.31666C10.0469 3.19993 10.713 3.37029 11.2802 3.66753C11.3191 1.65869 9.66147 0.000183105 7.38248 0.000183105H2.56914Z" fill="#003087"/>
</svg>
