<svg width="25" height="24" viewBox="0 0 25 24" fill="none" xmlns="http://www.w3.org/2000/svg">
<path fill-rule="evenodd" clip-rule="evenodd" d="M3.72301 0H21.1837C22.9897 0 24.4537 1.464 24.4537 3.26933V20.73C24.4537 22.536 22.9897 24 21.1843 24H3.72301C1.91767 24 0.453674 22.536 0.453674 20.7307V3.26933C0.453674 1.464 1.91767 0 3.72301 0Z" fill="#212121"/>
<path fill-rule="evenodd" clip-rule="evenodd" d="M15.9257 9.73798C16.9764 10.4886 18.2637 10.93 19.6537 10.93V8.25598C19.3904 8.25598 19.1284 8.22865 18.871 8.17398V10.2786C17.481 10.2786 16.1944 9.83665 15.143 9.08665V14.5426C15.143 17.272 12.929 19.4846 10.1984 19.4846C9.17971 19.4846 8.23238 19.1766 7.44571 18.6486C8.34371 19.566 9.59571 20.1353 10.981 20.1353C13.7117 20.1353 15.9257 17.9226 15.9257 15.1933V9.73798ZM16.8917 7.04065C16.355 6.45465 16.0024 5.69665 15.9257 4.85865V4.51465H15.1837C15.3704 5.57932 16.0077 6.48932 16.8917 7.04065ZM9.17304 16.5546C8.87304 16.1613 8.71104 15.6806 8.71171 15.186C8.71171 13.9373 9.72438 12.9253 10.9737 12.9253C11.2064 12.9253 11.4377 12.9606 11.6597 13.0313V10.298C11.4004 10.2626 11.139 10.2473 10.877 10.2526V12.38C10.655 12.3093 10.4237 12.274 10.1904 12.274C8.94104 12.274 7.92838 13.286 7.92838 14.5346C7.92904 15.418 8.43504 16.1826 9.17304 16.5546Z" fill="#EC407A"/>
<path fill-rule="evenodd" clip-rule="evenodd" d="M15.143 9.08665C16.1937 9.83731 17.481 10.2786 18.871 10.2786V8.17398C18.095 8.00865 17.4083 7.60331 16.8917 7.03998C16.0077 6.48865 15.371 5.57932 15.1843 4.51465H13.2357V15.1933C13.231 16.438 12.2203 17.446 10.9737 17.446C10.239 17.446 9.58633 17.096 9.17299 16.554C8.43499 16.182 7.92899 15.4173 7.92899 14.5346C7.92899 13.286 8.94166 12.274 10.191 12.274C10.4303 12.274 10.661 12.3113 10.8777 12.38V10.2533C8.19499 10.3086 6.03766 12.4993 6.03766 15.194C6.03766 16.5393 6.57499 17.7586 7.44699 18.6493C8.23366 19.1773 9.18099 19.4853 10.1997 19.4853C12.9303 19.4853 15.1443 17.2726 15.1443 14.5433L15.143 9.08665Z" fill="white"/>
<path fill-rule="evenodd" clip-rule="evenodd" d="M18.871 8.17461V7.60528C18.171 7.60662 17.4857 7.41061 16.8917 7.03995C17.417 7.61528 18.109 8.01195 18.871 8.17461ZM15.1837 4.51461C15.1657 4.41261 15.1524 4.31061 15.143 4.20728V3.86328H12.4524V14.5426C12.4484 15.7873 11.437 16.7953 10.1904 16.7953C9.82436 16.7953 9.47903 16.7086 9.17303 16.5539C9.58636 17.0959 10.239 17.4459 10.9737 17.4459C12.2204 17.4459 13.231 16.4379 13.2357 15.1933V4.51461H15.1837ZM10.877 10.2533V9.64728C10.6524 9.61662 10.4257 9.60128 10.1984 9.60128C7.46703 9.60128 5.25369 11.8139 5.25369 14.5433C5.25369 16.2546 6.12369 17.7626 7.44569 18.6493C6.57369 17.7586 6.03636 16.5393 6.03636 15.1939C6.03636 12.4993 8.19436 10.3086 10.877 10.2533Z" fill="#81D4FA"/>
</svg>
