<svg width="25" height="24" viewBox="0 0 25 24" fill="none" xmlns="http://www.w3.org/2000/svg">
<path fill-rule="evenodd" clip-rule="evenodd" d="M21.7997 24H3.13301C1.66034 24 0.466339 22.806 0.466339 21.3333V2.66667C0.466339 1.194 1.66034 0 3.13301 0H21.7997C23.2723 0 24.4663 1.194 24.4663 2.66667V21.3333C24.4663 22.806 23.2723 24 21.7997 24Z" fill="#212121"/>
<path d="M19.3043 18.6667H15.013L5.68567 5.33333H9.977L19.3043 18.6667ZM15.5243 17.536H17.233L9.46567 6.46399H7.757L15.5243 17.536Z" fill="white"/>
<path d="M7.04367 18.6667L11.8457 13.104L11.2177 12.2713L5.68167 18.6667H7.04367Z" fill="white"/>
<path d="M12.7663 10.4807L13.3696 11.34L18.557 5.33333H17.2236L12.7663 10.4807Z" fill="white"/>
</svg>
