<svg width="33" height="24" viewBox="0 0 33 24" fill="none" xmlns="http://www.w3.org/2000/svg">
<path d="M31.8137 19.92C31.4937 21.6 30.1337 22.88 28.4537 23.12C25.8137 23.52 21.4137 24 16.4537 24C11.5737 24 7.17367 23.52 4.45367 23.12C2.77367 22.88 1.41367 21.6 1.09367 19.92C0.773674 18.08 0.453674 15.36 0.453674 12C0.453674 8.64 0.773674 5.92 1.09367 4.08C1.41367 2.4 2.77367 1.12 4.45367 0.88C7.09367 0.48 11.4937 0 16.4537 0C21.4137 0 25.7337 0.48 28.4537 0.88C30.1337 1.12 31.4937 2.4 31.8137 4.08C32.1337 5.92 32.5337 8.64 32.5337 12C32.4537 15.36 32.1337 18.08 31.8137 19.92Z" fill="#FF3D00"/>
<path d="M13.2537 17.6001V6.40007L22.8537 12.0001L13.2537 17.6001Z" fill="white"/>
</svg>
